<?xml version="1.0" encoding="UTF-8" standalone="no"?>
<!-- Created with Inkscape (http://www.inkscape.org/) -->

<svg
   width="220"
   height="110"
   viewBox="0 0 220 110.00001"
   version="1.1"
   id="svg1"
   inkscape:version="1.4.2 (ebf0e940d0, 2025-05-08)"
   sodipodi:docname="image.svg"
   xmlns:inkscape="http://www.inkscape.org/namespaces/inkscape"
   xmlns:sodipodi="http://sodipodi.sourceforge.net/DTD/sodipodi-0.dtd"
   xmlns="http://www.w3.org/2000/svg"
   xmlns:svg="http://www.w3.org/2000/svg">
  <sodipodi:namedview
     id="namedview1"
     pagecolor="#ffffff"
     bordercolor="#000000"
     borderopacity="0.25"
     inkscape:showpageshadow="2"
     inkscape:pageopacity="0.0"
     inkscape:pagecheckerboard="true"
     inkscape:deskcolor="#d1d1d1"
     inkscape:document-units="px"
     inkscape:zoom="3.3110117"
     inkscape:cx="117.93978"
     inkscape:cy="45.001351"
     inkscape:window-width="1920"
     inkscape:window-height="1029"
     inkscape:window-x="0"
     inkscape:window-y="27"
     inkscape:window-maximized="1"
     inkscape:current-layer="layer1" />
  <defs
     id="defs1">
    <marker
       style="overflow:visible"
       id="Dot"
       refX="0"
       refY="0"
       orient="auto"
       inkscape:stockid="Dot"
       markerWidth="1"
       markerHeight="1"
       viewBox="0 0 1 1"
       inkscape:isstock="true"
       inkscape:collect="always"
       preserveAspectRatio="xMidYMid">
      <path
         transform="scale(0.5)"
         style="fill:context-stroke;fill-rule:evenodd;stroke:none"
         d="M 5,0 C 5,2.76 2.76,5 0,5 -2.76,5 -5,2.76 -5,0 c 0,-2.76 2.3,-5 5,-5 2.76,0 5,2.24 5,5 z"
         sodipodi:nodetypes="sssss"
         id="path17" />
    </marker>
  </defs>
  <g
     inkscape:label="Capa 1"
     inkscape:groupmode="layer"
     id="layer1">
    <g
       id="g3"
       transform="matrix(1,0,0,-1,10,105)">
      <circle
         style="fill:none;stroke:#00ff00;stroke-width:1.46341;stroke-dasharray:none"
         id="circle1"
         cx="100"
         cy="70"
         r="29.268293" />
      <circle
         style="fill:none;stroke:#ff0000;stroke-width:1.46341;stroke-dasharray:none"
         id="circle2"
         cx="80"
         cy="29.999998"
         r="29.268293" />
      <circle
         style="fill:none;stroke:#0000ff;stroke-width:1.46341;stroke-dasharray:none"
         id="circle3"
         cx="120"
         cy="29.999998"
         r="29.268293" />
    </g>
    <path
       style="fill:#b3b3b3;stroke:#808080;stroke-width:1;stroke-dasharray:1, 1;stroke-dashoffset:0;marker-end:url(#Dot)"
       d="M 186.34788,10.87281 109.63417,59.498431"
       id="path5" />
    <g
       id="g4"
       transform="matrix(0.56074768,0,0,0.56074768,125.27573,-20.649825)">
      <rect
         style="fill:#ffffff;stroke:#000000;stroke-width:0.987668;stroke-dasharray:none"
         id="rect3"
         width="106.01233"
         height="16.012333"
         x="56.993835"
         y="46.993835" />
      <path
         style="font-size:12px;font-family:serif;-inkscape-font-specification:serif"
         d="m 64.24707,57.604492 h 1.113282 v 0.621094 h -3.416016 v -0.621094 h 1.113281 v -7.5 h -1.113281 v -0.626953 h 3.416016 v 0.626953 H 64.24707 Z m 7.511719,-5.61914 v 1.558593 h -0.621094 q -0.0293,-0.46289 -0.257812,-0.691406 -0.228516,-0.228516 -0.667969,-0.228516 -0.796875,0 -1.224609,0.550782 -0.421875,0.550781 -0.421875,1.582031 v 2.847656 h 1.248047 v 0.621094 h -3.298829 v -0.621094 h 0.972657 v -4.992187 h -1.03125 V 51.99707 h 2.109375 v 1.107422 q 0.316406,-0.65039 0.814453,-0.960937 0.498047,-0.316407 1.21289,-0.316407 0.263672,0 0.550782,0.04102 0.292968,0.04102 0.615234,0.117188 z m 2.964844,6.240234 -2.291016,-5.601563 H 71.723633 V 51.99707 h 2.865234 v 0.626953 h -0.996094 l 1.751954,4.283204 1.751953,-4.283204 H 76.165039 V 51.99707 h 2.337891 v 0.626953 h -0.697266 l -2.291016,5.601563 z m 4.980469,-8.162109 q 0,-0.269532 0.193359,-0.46875 0.199219,-0.199219 0.474609,-0.199219 0.269532,0 0.462891,0.199219 0.199219,0.199218 0.199219,0.46875 0,0.27539 -0.19336,0.46875 -0.193359,0.193359 -0.46875,0.193359 -0.27539,0 -0.474609,-0.193359 -0.193359,-0.19336 -0.193359,-0.46875 z m 1.376953,7.541015 h 1.019531 v 0.621094 H 78.97168 v -0.621094 h 1.03125 V 52.624023 H 78.97168 V 51.99707 h 2.109375 z m 1.787109,0.621094 V 57.604492 H 83.84082 V 52.624023 H 82.80957 V 51.99707 h 2.109375 v 1.107422 q 0.298828,-0.632812 0.773438,-0.955078 0.480469,-0.322266 1.113281,-0.322266 1.03125,0 1.517578,0.591797 0.486328,0.591797 0.486328,1.845703 v 3.339844 h 0.960938 v 0.621094 h -2.976563 v -0.621094 h 0.931641 v -3 q 0,-1.142578 -0.28125,-1.564453 -0.28125,-0.427734 -0.990234,-0.427734 -0.75,0 -1.142579,0.550781 -0.392578,0.544922 -0.392578,1.59375 v 2.847656 h 0.9375 v 0.621094 z M 96.40332,52.624023 v 5.466797 q 0,1.341797 -0.738281,2.06836 -0.738281,0.732422 -2.103516,0.732422 -0.615234,0 -1.177734,-0.111329 -0.5625,-0.111328 -1.078125,-0.333984 v -1.306641 h 0.5625 q 0.105469,0.609375 0.498047,0.890625 0.392578,0.28125 1.125,0.28125 0.949219,0 1.388672,-0.539062 0.445312,-0.533203 0.445312,-1.681641 v -0.83789 q -0.316406,0.585937 -0.808593,0.867187 -0.486329,0.275391 -1.207032,0.275391 -1.148437,0 -1.880859,-0.908203 -0.726563,-0.914063 -0.726563,-2.378907 0,-1.464843 0.726563,-2.373046 0.726562,-0.908204 1.880859,-0.908204 0.720703,0 1.207032,0.28125 0.492187,0.275391 0.808593,0.861329 V 51.99707 h 2.109375 v 0.626953 z m -1.078125,2.179688 q 0,-1.119141 -0.433593,-1.710938 -0.427735,-0.591796 -1.248047,-0.591796 -0.832032,0 -1.259766,0.65625 -0.421875,0.65625 -0.421875,1.951171 0,1.289063 0.421875,1.951172 0.427734,0.66211 1.259766,0.66211 0.820312,0 1.248047,-0.585938 0.433593,-0.591797 0.433593,-1.716797 z m 6.937505,3.421875 v -0.621094 h 1.11328 v -7.5 h -1.17774 v -0.626953 h 2.54883 l 3.07031,6.228516 3.07032,-6.228516 h 2.39062 v 0.626953 h -1.16602 v 7.5 h 1.11915 v 0.621094 h -3.42188 v -0.621094 h 1.11328 v -6.761719 l -3,6.09961 h -0.82617 l -3,-6.09961 v 6.761719 h 1.11328 v 0.621094 z m 15.23437,-0.410156 q 0.86719,0 1.30664,-0.685547 0.44531,-0.685547 0.44531,-2.021485 0,-1.335937 -0.44531,-2.015625 -0.43945,-0.685546 -1.30664,-0.685546 -0.86719,0 -1.3125,0.685546 -0.43945,0.679688 -0.43945,2.015625 0,1.335938 0.44531,2.021485 0.44531,0.685547 1.30664,0.685547 z m 0,0.580078 q -1.35937,0 -2.18555,-0.896485 -0.82617,-0.902343 -0.82617,-2.390625 0,-1.488281 0.82031,-2.384765 0.82618,-0.896485 2.19141,-0.896485 1.36523,0 2.18555,0.896485 0.82617,0.896484 0.82617,2.384765 0,1.488282 -0.82617,2.390625 -0.82032,0.896485 -2.18555,0.896485 z m 4.10742,-0.169922 v -0.621094 h 0.97266 V 52.624023 H 121.5459 V 51.99707 h 2.10937 v 1.107422 q 0.29883,-0.632812 0.77344,-0.955078 0.48047,-0.322266 1.11328,-0.322266 1.03125,0 1.51758,0.591797 0.48633,0.591797 0.48633,1.845703 v 3.339844 h 0.96094 v 0.621094 h -2.97657 v -0.621094 h 0.93164 v -3 q 0,-1.142578 -0.28125,-1.564453 -0.28125,-0.427734 -0.99023,-0.427734 -0.75,0 -1.14258,0.550781 -0.39258,0.544922 -0.39258,1.59375 v 2.847656 h 0.9375 v 0.621094 z m 8.53125,-5.601563 h -0.94922 V 51.99707 h 0.94922 v -1.933593 h 1.08399 v 1.933593 h 2.02734 v 0.626953 h -2.02734 v 3.955079 q 0,0.791015 0.15234,1.013671 0.15234,0.222657 0.5625,0.222657 0.42188,0 0.61523,-0.246094 0.19336,-0.251953 0.20508,-0.808594 h 0.81446 q -0.0469,0.84961 -0.46289,1.242188 -0.41602,0.392578 -1.26563,0.392578 -0.93164,0 -1.31836,-0.410156 -0.38672,-0.416016 -0.38672,-1.40625 z m 8.30274,3.644532 v -1.31836 h -1.38868 q -0.80273,0 -1.19531,0.345703 -0.39258,0.345704 -0.39258,1.060547 0,0.650391 0.39844,1.03125 0.39844,0.38086 1.07813,0.38086 0.67382,0 1.08398,-0.416016 0.41602,-0.416016 0.41602,-1.083984 z m 1.07812,-1.933594 v 3.269531 h 0.96094 v 0.621094 h -2.03906 v -0.673828 q -0.35743,0.433594 -0.82618,0.638672 -0.46875,0.205078 -1.0957,0.205078 -1.03711,0 -1.64648,-0.550781 -0.60938,-0.550782 -0.60938,-1.488282 0,-0.966797 0.69727,-1.5 0.69726,-0.533203 1.96875,-0.533203 h 1.51172 v -0.427734 q 0,-0.708985 -0.4336,-1.095703 -0.42773,-0.392578 -1.20703,-0.392578 -0.64453,0 -1.02539,0.292968 -0.38086,0.292969 -0.47461,0.867188 h -0.55664 v -1.259766 q 0.5625,-0.240234 1.08984,-0.357422 0.53321,-0.123047 1.03711,-0.123047 1.29493,0 1.96875,0.644532 0.67969,0.638672 0.67969,1.863281 z m 3.76172,3.269531 h 1.01953 v 0.621094 h -3.13476 v -0.621094 h 1.03711 v -7.875 h -1.03711 v -0.621094 h 2.11523 z m 4.3418,0.621094 -2.29102,-5.601563 h -0.70898 V 51.99707 h 2.86523 v 0.626953 h -0.99609 l 1.75195,4.283204 1.75195,-4.283204 h -0.93164 V 51.99707 h 2.33789 v 0.626953 h -0.69726 l -2.29102,5.601563 z m 7.42383,-0.410156 q 0.86718,0 1.30664,-0.685547 0.44531,-0.685547 0.44531,-2.021485 0,-1.335937 -0.44531,-2.015625 -0.43946,-0.685546 -1.30664,-0.685546 -0.86719,0 -1.3125,0.685546 -0.43946,0.679688 -0.43946,2.015625 0,1.335938 0.44531,2.021485 0.44532,0.685547 1.30665,0.685547 z m 0,0.580078 q -1.35938,0 -2.18555,-0.896485 -0.82617,-0.902343 -0.82617,-2.390625 0,-1.488281 0.82031,-2.384765 0.82617,-0.896485 2.19141,-0.896485 1.36523,0 2.18554,0.896485 0.82617,0.896484 0.82617,2.384765 0,1.488282 -0.82617,2.390625 -0.82031,0.896485 -2.18554,0.896485 z"
         id="text3"
         aria-label="Irving Montalvo" />
    </g>
    <path
       style="font-size:5.33333px;font-family:serif;-inkscape-font-specification:serif;fill:#666666;stroke-width:0.538382;stroke-dasharray:0.538382, 0.538382"
       d="m 130.50474,77.818858 q -0.17188,0.544271 -0.57813,0.825521 -0.40364,0.278645 -1.02343,0.278645 -0.38021,0 -0.70573,-0.130208 -0.32552,-0.130208 -0.57813,-0.382812 -0.29166,-0.291667 -0.43489,-0.661458 -0.14063,-0.372396 -0.14063,-0.841145 0,-0.90625 0.52344,-1.460937 0.52344,-0.557291 1.38021,-0.557291 0.31771,0 0.67708,0.08333 0.35938,0.08333 0.77344,0.252604 v 0.895833 h -0.29427 q -0.0964,-0.489583 -0.38802,-0.721354 -0.28907,-0.231771 -0.8125,-0.231771 -0.6224,0 -0.94271,0.442708 -0.32031,0.440104 -0.32031,1.296875 0,0.854166 0.32031,1.296874 0.32031,0.440104 0.94271,0.440104 0.43489,0 0.71614,-0.205729 0.28125,-0.208333 0.40625,-0.619792 z m 2.4427,0.158855 v -0.585938 h -0.61718 q -0.35677,0 -0.53125,0.153646 -0.17448,0.153646 -0.17448,0.471354 0,0.289062 0.17708,0.458333 0.17709,0.169271 0.47917,0.169271 0.29948,0 0.48177,-0.184896 0.18489,-0.184896 0.18489,-0.48177 z m 0.47917,-0.859375 v 1.453124 h 0.42708 v 0.276042 h -0.90625 v -0.299479 q -0.15885,0.192708 -0.36718,0.283854 -0.20834,0.09114 -0.48698,0.09114 -0.46094,0 -0.73177,-0.244791 -0.27083,-0.244792 -0.27083,-0.661458 0,-0.429687 0.30989,-0.666666 0.3099,-0.236979 0.875,-0.236979 h 0.67187 v -0.190104 q 0,-0.315104 -0.1927,-0.486979 -0.19011,-0.174479 -0.53646,-0.174479 -0.28646,0 -0.45573,0.130208 -0.16927,0.130208 -0.21094,0.385416 h -0.24739 v -0.559895 q 0.25,-0.106771 0.48437,-0.158854 0.23698,-0.05469 0.46094,-0.05469 0.57552,0 0.875,0.286459 0.30208,0.283854 0.30208,0.828124 z m 1.67188,1.453124 h 0.45312 v 0.276042 h -1.39323 v -0.276042 h 0.46094 v -3.499998 h -0.46094 v -0.276041 h 0.94011 z m 3.35416,-0.554687 q -0.10156,0.442708 -0.39062,0.674479 -0.28907,0.23177 -0.7474,0.23177 -0.60417,0 -0.97135,-0.398437 -0.36719,-0.401041 -0.36719,-1.062499 0,-0.664062 0.36719,-1.059895 0.36718,-0.398438 0.97135,-0.398438 0.26302,0 0.52344,0.0625 0.26041,0.0599 0.52343,0.184896 v 0.708333 h -0.27864 q -0.0547,-0.364583 -0.23958,-0.53125 -0.1823,-0.166666 -0.52344,-0.166666 -0.38802,0 -0.58594,0.302083 -0.19792,0.299479 -0.19792,0.898437 0,0.598958 0.19532,0.901041 0.19791,0.302083 0.58854,0.302083 0.30989,0 0.49479,-0.161458 0.1849,-0.161458 0.2526,-0.486979 z m 2.13281,-1.937499 h 0.89583 v 2.492186 h 0.45313 v 0.276042 h -0.93229 v -0.489583 q -0.13282,0.276041 -0.34375,0.421874 -0.21094,0.143229 -0.48959,0.143229 -0.46093,0 -0.67968,-0.260416 -0.21615,-0.263021 -0.21615,-0.822916 v -1.48177 h -0.43229 v -0.278646 h 0.91406 v 1.611978 q 0,0.505208 0.1224,0.692708 0.125,0.1875 0.44271,0.1875 0.33333,0 0.50781,-0.244791 0.17448,-0.244792 0.17448,-0.710937 v -1.257812 h -0.41667 z m 2.64063,2.492186 h 0.45312 v 0.276042 h -1.39323 v -0.276042 h 0.46094 v -3.499998 h -0.46094 v -0.276041 h 0.94011 z m 1.25781,-3.697914 h 1.55729 v 0.385416 h -1.55729 z m 1.47656,3.104165 v -0.585938 h -0.61719 q -0.35677,0 -0.53125,0.153646 -0.17448,0.153646 -0.17448,0.471354 0,0.289062 0.17709,0.458333 0.17708,0.169271 0.47916,0.169271 0.29948,0 0.48177,-0.184896 0.1849,-0.184896 0.1849,-0.48177 z m 0.47917,-0.859375 v 1.453124 h 0.42708 v 0.276042 h -0.90625 v -0.299479 q -0.15886,0.192708 -0.36719,0.283854 -0.20833,0.09114 -0.48698,0.09114 -0.46093,0 -0.73177,-0.244791 -0.27083,-0.244792 -0.27083,-0.661458 0,-0.429687 0.30989,-0.666666 0.3099,-0.236979 0.875,-0.236979 h 0.67188 v -0.190104 q 0,-0.315104 -0.19271,-0.486979 -0.1901,-0.174479 -0.53646,-0.174479 -0.28646,0 -0.45573,0.130208 -0.16927,0.130208 -0.21093,0.385416 h -0.2474 v -0.559895 q 0.25,-0.106771 0.48438,-0.158854 0.23697,-0.05469 0.46093,-0.05469 0.57552,0 0.875,0.286459 0.30209,0.283854 0.30209,0.828124 z m 3.1276,-1.04427 v 0.692708 h -0.27604 q -0.013,-0.205729 -0.11459,-0.307292 -0.10156,-0.101562 -0.29687,-0.101562 -0.35417,0 -0.54427,0.244791 -0.1875,0.244792 -0.1875,0.703125 v 1.265624 h 0.55468 v 0.276042 h -1.46614 v -0.276042 h 0.43229 v -2.218749 h -0.45833 v -0.273437 h 0.9375 v 0.492187 q 0.14062,-0.289062 0.36198,-0.427083 0.22135,-0.140625 0.53906,-0.140625 0.11719,0 0.24479,0.01823 0.13021,0.01823 0.27344,0.05208 z m 2.89062,1.440103 h -2.0651 v 0.02083 q 0,0.559896 0.21093,0.846354 0.21094,0.283854 0.6224,0.283854 0.3151,0 0.51562,-0.164062 0.20313,-0.166667 0.28386,-0.492188 h 0.38541 q -0.11458,0.455729 -0.42447,0.684896 -0.3073,0.229166 -0.8099,0.229166 -0.60677,0 -0.97656,-0.398437 -0.36719,-0.401041 -0.36719,-1.062499 0,-0.65625 0.36198,-1.057291 0.36198,-0.401042 0.95052,-0.401042 0.6276,0 0.96354,0.388021 0.33594,0.385416 0.34896,1.122395 z m -0.5651,-0.276041 q -0.0156,-0.484375 -0.20573,-0.729167 -0.1875,-0.247395 -0.54167,-0.247395 -0.33073,0 -0.52083,0.247395 -0.19011,0.247396 -0.23177,0.729167 z"
       id="text5"
       aria-label="Calculāre" />
    <path
       style="font-size:5.33333px;font-family:serif;-inkscape-font-specification:serif;fill:#666666;stroke-width:0.437159;stroke-dasharray:0.437159, 0.437159"
       d="m 70.168442,77.262866 q -0.171875,0.544271 -0.578125,0.825521 -0.403645,0.278645 -1.023436,0.278645 -0.380209,0 -0.705729,-0.130208 -0.325521,-0.130208 -0.578125,-0.382812 -0.291666,-0.291667 -0.434895,-0.661458 -0.140625,-0.372396 -0.140625,-0.841145 0,-0.90625 0.523437,-1.460937 0.523437,-0.557291 1.380207,-0.557291 0.317708,0 0.677083,0.08333 0.359375,0.08333 0.773437,0.252604 v 0.895833 h -0.29427 q -0.09635,-0.489583 -0.388021,-0.721354 -0.289062,-0.231771 -0.812499,-0.231771 -0.622396,0 -0.942708,0.442708 -0.320313,0.440104 -0.320313,1.296875 0,0.854166 0.320313,1.296874 0.320312,0.440104 0.942708,0.440104 0.434895,0 0.716145,-0.205729 0.28125,-0.208334 0.40625,-0.619792 z m 1.924478,0.846354 q 0.385416,0 0.580729,-0.304687 0.197916,-0.304688 0.197916,-0.898437 0,-0.59375 -0.197916,-0.895833 -0.195313,-0.304687 -0.580729,-0.304687 -0.385416,0 -0.583333,0.304687 -0.195312,0.302083 -0.195312,0.895833 0,0.593749 0.197916,0.898437 0.197917,0.304687 0.580729,0.304687 z m 0,0.257812 q -0.604166,0 -0.971354,-0.398437 -0.367187,-0.401041 -0.367187,-1.062499 0,-0.661458 0.364583,-1.059896 0.367188,-0.398437 0.973958,-0.398437 0.60677,0 0.971354,0.398437 0.367187,0.398438 0.367187,1.059896 0,0.661458 -0.367187,1.062499 -0.364584,0.398437 -0.971354,0.398437 z m 4.369789,-2.304686 q 0.138021,-0.304687 0.351562,-0.458333 0.216146,-0.15625 0.502604,-0.15625 0.434896,0 0.648437,0.270833 0.213542,0.268229 0.213542,0.8125 v 1.484374 h 0.432291 v 0.276042 H 77.283021 V 78.01547 h 0.416666 v -1.429687 q 0,-0.424479 -0.124999,-0.604166 -0.125,-0.179687 -0.414063,-0.179687 -0.320312,0 -0.489583,0.242187 -0.166666,0.242187 -0.166666,0.705729 v 1.265624 h 0.416666 v 0.276042 H 75.608543 V 78.01547 h 0.416666 v -1.447916 q 0,-0.414062 -0.125,-0.588541 -0.125,-0.177083 -0.414062,-0.177083 -0.320312,0 -0.489583,0.242187 -0.166666,0.242187 -0.166666,0.705729 v 1.265624 h 0.416666 v 0.276042 H 73.91844 V 78.01547 h 0.432291 v -2.218749 h -0.458333 v -0.273437 h 0.9375 v 0.492187 q 0.132812,-0.276041 0.338541,-0.421875 0.205729,-0.145833 0.466146,-0.145833 0.322916,0 0.539062,0.161458 0.216145,0.158855 0.289062,0.453125 z m 3.388019,0.708333 v 0.273437 q 0,0.5 0.190104,0.763021 0.192709,0.260416 0.557292,0.260416 0.367187,0 0.554687,-0.29427 0.190104,-0.294271 0.190104,-0.867187 0,-0.575521 -0.190104,-0.867187 -0.1875,-0.291667 -0.554687,-0.291667 -0.364583,0 -0.557292,0.263021 -0.190104,0.263021 -0.190104,0.760416 z M 79.371562,75.80193 h -0.460937 v -0.278646 h 0.940103 v 0.432291 q 0.140625,-0.260416 0.356771,-0.382812 0.21875,-0.125 0.539062,-0.125 0.510416,0 0.833333,0.403646 0.322916,0.403645 0.322916,1.054687 0,0.651041 -0.322916,1.057291 -0.322917,0.403645 -0.833333,0.403645 -0.320312,0 -0.539062,-0.122395 -0.216146,-0.125 -0.356771,-0.385417 v 1.26302 h 0.453125 v 0.278646 H 78.910625 V 79.12224 h 0.460937 z m 4.687496,-0.278646 h 0.895833 v 2.492186 h 0.453125 v 0.276042 h -0.932291 v -0.489584 q -0.132813,0.276042 -0.34375,0.421875 -0.210937,0.143229 -0.489583,0.143229 -0.460937,0 -0.679687,-0.260416 -0.216146,-0.263021 -0.216146,-0.822916 v -1.48177 h -0.432291 v -0.278646 h 0.914062 v 1.611978 q 0,0.505208 0.122395,0.692708 0.125,0.1875 0.442708,0.1875 0.333334,0 0.507813,-0.244791 0.174479,-0.244792 0.174479,-0.710938 V 75.80193 h -0.416667 z m 2.122395,0.278646 h -0.421875 v -0.278646 h 0.421875 V 74.66391 h 0.48177 v 0.859374 h 0.901041 v 0.278646 h -0.901041 v 1.757811 q 0,0.351562 0.06771,0.450521 0.06771,0.09896 0.249999,0.09896 0.1875,0 0.273438,-0.109375 0.08594,-0.111979 0.09115,-0.359375 h 0.361978 q -0.02083,0.377604 -0.205729,0.552083 -0.184895,0.174479 -0.562499,0.174479 -0.414062,0 -0.585937,-0.182291 -0.171875,-0.184896 -0.171875,-0.625 z m 2.213541,-1.484374 h 1.55729 v 0.385416 h -1.55729 z m 1.476561,3.104164 v -0.585937 h -0.617187 q -0.35677,0 -0.531249,0.153646 -0.17448,0.153646 -0.17448,0.471354 0,0.289062 0.177084,0.458333 0.177083,0.169271 0.479166,0.169271 0.299479,0 0.481771,-0.184896 0.184895,-0.184896 0.184895,-0.481771 z m 0.479167,-0.859374 v 1.453124 h 0.427083 v 0.276042 h -0.90625 v -0.299479 q -0.158854,0.192708 -0.367187,0.283854 -0.208333,0.09114 -0.486979,0.09114 -0.460937,0 -0.73177,-0.244791 -0.270833,-0.244792 -0.270833,-0.661458 0,-0.429687 0.309895,-0.666666 0.309896,-0.236979 0.875,-0.236979 h 0.671874 v -0.190104 q 0,-0.315104 -0.192708,-0.486979 -0.190104,-0.174479 -0.536458,-0.174479 -0.286458,0 -0.455729,0.130208 -0.169271,0.130208 -0.210937,0.385416 h -0.247396 v -0.559895 q 0.25,-0.106771 0.484375,-0.158854 0.236979,-0.05469 0.460937,-0.05469 0.575521,0 0.875,0.286458 0.302083,0.283854 0.302083,0.828125 z m 3.127602,-1.04427 v 0.692708 h -0.276041 q -0.01302,-0.205729 -0.114584,-0.307292 -0.101562,-0.101562 -0.296875,-0.101562 -0.354166,0 -0.54427,0.244791 -0.1875,0.244792 -0.1875,0.703125 v 1.265624 h 0.554687 v 0.276042 H 91.147596 V 78.01547 h 0.432292 v -2.218749 h -0.458333 v -0.273437 h 0.937499 v 0.492187 q 0.140625,-0.289062 0.361979,-0.427083 0.221354,-0.140625 0.539062,-0.140625 0.117188,0 0.244792,0.01823 0.130208,0.01823 0.273437,0.05208 z m 2.890622,1.440103 h -2.065103 v 0.02083 q 0,0.559896 0.210938,0.846354 0.210937,0.283854 0.622395,0.283854 0.315104,0 0.515625,-0.164062 0.203125,-0.166667 0.283854,-0.492188 h 0.385416 q -0.114583,0.455729 -0.424479,0.684896 -0.307291,0.229166 -0.809895,0.229166 -0.60677,0 -0.976562,-0.398437 -0.367187,-0.401041 -0.367187,-1.062499 0,-0.65625 0.361979,-1.057291 0.361979,-0.401042 0.95052,-0.401042 0.627604,0 0.963541,0.388021 0.335937,0.385416 0.348958,1.122395 z m -0.565104,-0.276042 q -0.01563,-0.484374 -0.205729,-0.729166 -0.1875,-0.247395 -0.541666,-0.247395 -0.330729,0 -0.520833,0.247395 -0.190104,0.247396 -0.231771,0.729166 z"
       id="text6"
       aria-label="Computāre" />
    <path
       style="font-size:5.33333px;font-family:serif;-inkscape-font-specification:serif;fill:#666666;stroke-width:0.753735;stroke-dasharray:0.753735, 0.753735"
       d="m 104.40755,32.136432 q -0.17187,0.54427 -0.57812,0.82552 -0.40365,0.278646 -1.02344,0.278646 -0.3802,0 -0.70573,-0.130208 -0.32552,-0.130209 -0.57812,-0.382813 -0.29167,-0.291666 -0.4349,-0.661457 -0.14062,-0.372396 -0.14062,-0.841146 0,-0.906249 0.52344,-1.460936 0.52343,-0.557292 1.3802,-0.557292 0.31771,0 0.67709,0.08333 0.35937,0.08333 0.77343,0.252604 v 0.895832 h -0.29427 q -0.0964,-0.489583 -0.38802,-0.721353 -0.28906,-0.231771 -0.8125,-0.231771 -0.62239,0 -0.9427,0.442708 -0.32032,0.440104 -0.32032,1.296874 0,0.854166 0.32032,1.296874 0.32031,0.440104 0.9427,0.440104 0.4349,0 0.71615,-0.205729 0.28125,-0.208333 0.40625,-0.619791 z m 2.86979,-1.744791 v 0.692708 h -0.27604 q -0.013,-0.205729 -0.11458,-0.307291 -0.10156,-0.101563 -0.29687,-0.101563 -0.35417,0 -0.54428,0.244792 -0.1875,0.244791 -0.1875,0.703124 v 1.265625 h 0.55469 v 0.276041 h -1.46614 v -0.276041 h 0.43229 v -2.218749 h -0.45833 V 30.39685 h 0.93749 v 0.492187 q 0.14063,-0.289062 0.36198,-0.427083 0.22136,-0.140625 0.53907,-0.140625 0.11718,0 0.24479,0.01823 0.13021,0.01823 0.27343,0.05208 z m 2.89063,1.440104 h -2.0651 v 0.02083 q 0,0.559895 0.21093,0.846354 0.21094,0.283854 0.6224,0.283854 0.3151,0 0.51562,-0.164063 0.20313,-0.166666 0.28386,-0.492187 h 0.38541 q -0.11458,0.455729 -0.42448,0.684895 -0.30729,0.229167 -0.80989,0.229167 -0.60677,0 -0.97656,-0.398437 -0.36719,-0.401042 -0.36719,-1.0625 0,-0.656249 0.36198,-1.057291 0.36198,-0.401041 0.95052,-0.401041 0.6276,0 0.96354,0.388021 0.33594,0.385416 0.34896,1.122395 z m -0.56511,-0.276042 q -0.0156,-0.484375 -0.20572,-0.729166 -0.1875,-0.247396 -0.54167,-0.247396 -0.33073,0 -0.52083,0.247396 -0.19011,0.247396 -0.23177,0.729166 z m 1.47657,-2.364582 h 1.55729 v 0.385417 h -1.55729 z m 1.47656,3.104165 v -0.585937 h -0.61719 q -0.35677,0 -0.53125,0.153646 -0.17448,0.153645 -0.17448,0.471354 0,0.289062 0.17708,0.458333 0.17709,0.16927 0.47917,0.16927 0.29948,0 0.48177,-0.184895 0.1849,-0.184896 0.1849,-0.481771 z m 0.47916,-0.859374 v 1.453124 h 0.42709 v 0.276041 h -0.90625 v -0.299479 q -0.15886,0.192708 -0.36719,0.283854 -0.20833,0.09115 -0.48698,0.09115 -0.46094,0 -0.73177,-0.244792 -0.27083,-0.244791 -0.27083,-0.661457 0,-0.429688 0.30989,-0.666667 0.3099,-0.236979 0.875,-0.236979 h 0.67188 v -0.190104 q 0,-0.315104 -0.19271,-0.486979 -0.1901,-0.174479 -0.53646,-0.174479 -0.28646,0 -0.45573,0.130209 -0.16927,0.130208 -0.21094,0.385416 h -0.24739 V 30.53487 q 0.25,-0.10677 0.48437,-0.158854 0.23698,-0.05469 0.46094,-0.05469 0.57552,0 0.875,0.286458 0.30208,0.283854 0.30208,0.828125 z m 3.12761,-1.044271 v 0.692708 h -0.27605 q -0.013,-0.205729 -0.11458,-0.307291 -0.10156,-0.101563 -0.29687,-0.101563 -0.35417,0 -0.54427,0.244792 -0.1875,0.244791 -0.1875,0.703124 v 1.265625 h 0.55468 v 0.276041 h -1.46614 v -0.276041 h 0.43229 v -2.218749 h -0.45833 V 30.39685 h 0.9375 v 0.492187 q 0.14062,-0.289062 0.36197,-0.427083 0.22136,-0.140625 0.53907,-0.140625 0.11718,0 0.24479,0.01823 0.13021,0.01823 0.27344,0.05208 z m 2.89062,1.440104 h -2.0651 v 0.02083 q 0,0.559895 0.21093,0.846354 0.21094,0.283854 0.6224,0.283854 0.3151,0 0.51562,-0.164063 0.20313,-0.166666 0.28386,-0.492187 h 0.38541 q -0.11458,0.455729 -0.42447,0.684895 -0.3073,0.229167 -0.8099,0.229167 -0.60677,0 -0.97656,-0.398437 -0.36719,-0.401042 -0.36719,-1.0625 0,-0.656249 0.36198,-1.057291 0.36198,-0.401041 0.95052,-0.401041 0.6276,0 0.96354,0.388021 0.33594,0.385416 0.34896,1.122395 z m -0.5651,-0.276042 q -0.0156,-0.484375 -0.20573,-0.729166 -0.1875,-0.247396 -0.54167,-0.247396 -0.33073,0 -0.52083,0.247396 -0.19011,0.247396 -0.23177,0.729166 z"
       id="text7"
       aria-label="Creāre" />
  </g>
</svg>
